# xmcd
#
# Track frame offsets:
#	150
#	27781
#	45666
#	65646
#
# Disc length: 1136 seconds
#
# Revision: 1
# Processed by: cddbd v1.5PL0 Copyright (c) Steve Scherf et al.
# Submitted via: EasyCDDAExtractor 5.1.0
#
DISCID=2e046e04
DTITLE=At the close of Every Day - If you spoke to me
DYEAR=2001
DGENRE=R&B
TTITLE0=The Jezus Heart
TTITLE1=My private disabled Place
TTITLE2=If You spoke to Me
TTITLE3=Happiness of a Son
EXTD=
EXTT0=
EXTT1=
EXTT2=
EXTT3=
PLAYORDER=
